<svg width="40" height="40" viewBox="0 0 40 40" fill="none" xmlns="http://www.w3.org/2000/svg">
<path fill-rule="evenodd" clip-rule="evenodd" d="M4.11504 11.6153C4.23115 11.4989 4.36909 11.4065 4.52095 11.3435C4.67282 11.2805 4.83562 11.248 5.00004 11.248C5.16446 11.248 5.32726 11.2805 5.47912 11.3435C5.63098 11.4065 5.76892 11.4989 5.88504 11.6153L20 25.7328L34.115 11.6153C34.2313 11.4991 34.3692 11.4069 34.5211 11.344C34.6729 11.2811 34.8357 11.2487 35 11.2487C35.1644 11.2487 35.3271 11.2811 35.479 11.344C35.6308 11.4069 35.7688 11.4991 35.885 11.6153C36.0013 11.7315 36.0934 11.8695 36.1563 12.0213C36.2192 12.1732 36.2516 12.3359 36.2516 12.5003C36.2516 12.6646 36.2192 12.8274 36.1563 12.9792C36.0934 13.1311 36.0013 13.2691 35.885 13.3853L20.885 28.3853C20.7689 28.5017 20.631 28.594 20.4791 28.6571C20.3273 28.7201 20.1645 28.7525 20 28.7525C19.8356 28.7525 19.6728 28.7201 19.521 28.6571C19.3691 28.594 19.2312 28.5017 19.115 28.3853L4.11504 13.3853C3.99863 13.2692 3.90627 13.1312 3.84326 12.9794C3.78024 12.8275 3.7478 12.6647 3.7478 12.5003C3.7478 12.3359 3.78024 12.1731 3.84326 12.0212C3.90627 11.8693 3.99863 11.7314 4.11504 11.6153Z" fill="#212529"/>
</svg>
