<svg width="347" height="348" viewBox="0 0 347 348" fill="none" xmlns="http://www.w3.org/2000/svg">
<g clip-path="url(#clip0_1_49)">
<path d="M162.263 347.948L157.118 347.377L152.154 336.253L152.023 336.239L150.856 346.683L145.82 346.127L147.9 327.522L153.255 328.115L158.074 338.877L158.183 338.892L159.314 328.794L164.35 329.351L162.271 347.956L162.263 347.948Z" fill="#323232"/>
<path d="M140.044 345.021L127.071 342L128.071 337.728L136.108 339.6L136.782 336.709L129.528 335.017L130.427 331.187L137.681 332.871L138.377 329.9L130.072 327.97L131.072 323.698L144.312 326.778L140.051 345.007L140.044 345.021Z" fill="#323232"/>
<path d="M122.564 341.103L117.693 339.203L119.665 327.566L119.462 327.486L112.447 337.157L107.627 335.278L109.048 323.431L108.874 323.366L102.38 333.239L97.5392 331.353L108.823 315.654L113.715 317.562L112.374 330.305L120.056 320.034L124.926 321.935L122.564 341.111V341.103Z" fill="#323232"/>
<path d="M87.77 311.584L86.8207 325.404L81.9796 322.282L82.8855 314.295L75.95 318.386L71.1089 315.263L83.3565 308.744L86.9584 303.2L91.3719 306.048L87.77 311.592V311.584Z" fill="#323232"/>
<path d="M75.0658 306.554C71.5437 310.76 66.2243 311.7 61.8181 308.035C57.4335 304.385 57.4046 299.001 60.9194 294.787C64.4198 290.602 69.7827 289.619 74.1672 293.269C78.5734 296.933 78.5734 302.362 75.0658 306.554ZM71.3698 296.615C69.2681 294.866 66.8331 295.907 64.9633 298.14C63.0573 300.417 62.521 302.933 64.6227 304.682C66.7389 306.445 69.1304 305.47 71.0364 303.193C72.9062 300.952 73.4932 298.379 71.3698 296.615Z" fill="#323232"/>
<path d="M51.1502 298.27L45.6859 292.423C42.0478 288.527 42.6276 285.029 45.3525 282.499C47.215 280.764 49.5414 279.962 52.0271 281.01L54.1723 274.05L57.5929 277.707L55.571 283.858L57.2668 285.679L61.4267 281.812L64.8835 285.513L51.1502 298.27ZM52.1503 286.633C50.9618 285.361 49.8168 285.513 48.9399 286.33C48.063 287.147 47.8238 288.274 49.0123 289.546L50.9111 291.585L54.0491 288.672L52.1503 286.633Z" fill="#323232"/>
<path d="M37.185 282.897L34.2209 278.798L40.6346 274.18L30.4886 273.63L27.01 268.817L37.7213 269.59L41.7942 257.259L45.1858 261.943L42.4537 269.908L46.2149 270.168L49.4544 267.841L52.4185 271.939L37.1995 282.889L37.185 282.897Z" fill="#323232"/>
<path d="M28.8726 253.703C23.5677 256.269 18.7411 254.859 16.248 249.735C14.3783 245.889 14.7841 241.762 19.3571 239.283L21.524 243.735C19.6977 245.123 19.6035 246.656 20.263 248C21.5529 250.645 24.2779 250.125 26.5897 249.005C28.9088 247.884 31.0612 246.128 29.735 243.41C29.0827 242.066 27.8217 241.184 25.5679 241.769L23.401 237.317C28.1841 235.272 31.7062 237.491 33.6049 241.386C36.0762 246.46 34.1992 251.115 28.8653 253.696L28.8726 253.703Z" fill="#323232"/>
<path d="M11.291 237.859L9.50818 233.125L27.0825 226.54L28.8653 231.274L11.291 237.859Z" fill="#323232"/>
<path d="M11.0012 223.389L12.4216 228.354L8.11685 229.583L3.88452 214.802L8.18932 213.573L9.60976 218.539L23.3503 214.621L24.7418 219.478L11.0012 223.396V223.389Z" fill="#323232"/>
<path d="M13.8638 202.341L2.91335 210.856L2.0147 205.174L8.58061 200.512L0.898645 198.091L0 192.41L13.0448 197.159L19.589 196.132L20.4079 201.307L13.8638 202.334V202.341Z" fill="#323232"/>
<path d="M10.9939 172.742C9.62422 172.699 8.50816 171.514 8.55164 170.126C8.59513 168.76 9.78366 167.647 11.1461 167.69C12.5376 167.733 13.6536 168.919 13.6174 170.285C13.5739 171.673 12.3854 172.793 10.9939 172.742Z" fill="#323232"/>
<path d="M1.3914 146.621L2.00016 143.686L17.9511 137.622L17.9656 137.542L3.86268 134.651L4.42795 131.926L22.8139 135.699L22.1834 138.735L6.37743 144.749V144.799L20.3354 147.669L19.7701 150.394L1.38416 146.621H1.3914Z" fill="#323232"/>
<path d="M14.6899 129.577C8.95018 127.626 6.73256 123.086 8.37041 118.301C9.99377 113.545 14.5305 111.298 20.2702 113.242C26.0099 115.186 28.2493 119.74 26.6259 124.496C24.9953 129.281 20.4369 131.521 14.6972 129.57L14.6899 129.577ZM24.3358 123.73C25.4447 120.492 23.7633 117.434 19.3498 115.931C14.9363 114.427 11.7621 115.837 10.6533 119.082C9.5372 122.349 11.1895 125.392 15.6031 126.896C20.0166 128.399 23.2198 126.997 24.3286 123.73H24.3358Z" fill="#323232"/>
<path d="M12.6317 107.17L13.9 104.547L30.6916 106.187L30.764 106.043L18.9874 93.9937L20.2557 91.37L34.1195 105.819L32.6121 108.948L12.639 107.185L12.6317 107.17Z" fill="#323232"/>
<path d="M22.6546 87.3369L29.1335 77.0226L31.199 78.3164L26.2057 86.2744L30.9743 89.2523L35.54 81.981L37.4242 83.1591L32.8585 90.4305L37.9678 93.6252L43.106 85.4432L45.1714 86.737L38.5548 97.2753L22.6473 87.3369H22.6546Z" fill="#323232"/>
<path d="M32.0613 72.5774L34.2209 69.9175L49.8747 74.5217L42.1203 60.1959L44.2799 57.536L58.8612 69.332L57.1074 71.4932L46.4034 62.8341L46.3381 62.9136L53.4476 75.9962L52.0634 77.702L37.743 73.4881L37.6923 73.5532L48.3963 82.2123L46.6425 84.3734L32.0613 72.5846V72.5774Z" fill="#323232"/>
<path d="M48.708 53.0691L53.9042 48.154C56.8031 45.4146 59.3975 45.5375 61.26 47.4963C62.6225 48.9347 62.8472 50.5248 62.05 52.0933C64.2821 50.9007 66.42 51.132 68.1738 52.9751C70.3117 55.223 70.3407 58.4033 66.9418 61.627L61.6296 66.6504L48.7153 53.0691H48.708ZM58.9917 53.7774C60.4339 52.4185 60.6223 50.9802 59.4193 49.7225C58.2597 48.501 56.832 48.6311 55.3899 49.9972L52.3533 52.8667L55.9479 56.6469L58.9844 53.7774H58.9917ZM65.1807 60.0151C67.2244 58.0853 67.1954 56.2277 65.9055 54.8688C64.6155 53.51 62.7964 53.4232 60.7527 55.3603L57.5785 58.3599L62.0065 63.0147L65.1807 60.0151Z" fill="#323232"/>
<path d="M62.8688 40.1455L72.5437 32.7368L74.0294 34.6667L66.5649 40.384L69.9928 44.8364L76.8196 39.6106L78.1748 41.3742L71.348 46.6001L75.0223 51.3705L82.697 45.4942L84.1826 47.424L74.2903 54.9917L62.8616 40.1455H62.8688Z" fill="#323232"/>
<path d="M76.7037 29.8601L82.7333 26.1594C86.6395 23.767 89.734 24.5982 91.6328 27.6701C93.0822 30.0192 93.017 32.4694 91.024 34.5439L98.4813 38.4759L96.1042 39.9359L89.031 36.1774L85.2843 38.4759L88.9078 44.3522L86.5308 45.8123L76.6964 29.8674L76.7037 29.8601ZM87.5744 34.2114C89.8789 32.7947 90.35 31.0022 89.2122 29.159C88.0454 27.2653 86.2336 26.875 83.9218 28.2917L80.3562 30.4745L84.0088 36.3942L87.5744 34.2114Z" fill="#323232"/>
<path d="M108.432 24.2729C110.265 21.7286 111.7 20.0445 110.794 17.8978C109.99 15.939 108.178 15.5776 106.402 16.3294C104.576 17.1027 103.591 18.7652 104.576 21.0781L104.721 21.4251L102.301 22.4514L102.105 21.9816C100.8 18.9025 101.721 15.8089 105.526 14.2043C109.127 12.6792 112.026 13.8646 113.236 16.7269C114.555 19.8277 112.794 22.1985 110.99 24.5909C109.04 27.2725 108.2 29.0506 108.917 30.7491L108.968 30.872L117.73 27.1641L118.621 29.2602L107.018 34.168L106.714 33.4524C105.402 30.3733 105.736 27.9375 108.432 24.2729Z" fill="#323232"/>
<path d="M118.005 20.5433L125.281 18.1292L125.933 20.0807L118.657 22.4948L118.005 20.5433Z" fill="#323232"/>
<path d="M129.028 19.394L131.506 18.8013C132.159 21.3962 134.173 22.3141 136.572 21.7431C138.739 21.2227 140.341 19.6325 139.804 17.3991C139.326 15.4259 137.529 14.479 134.688 15.1584L133.804 15.3681L133.325 13.3948L134.079 13.2141C137.029 12.5058 137.369 10.8361 137.058 9.55677C136.63 7.78592 135.065 7.12095 133.137 7.58354C131.26 8.03167 129.876 9.3833 130.521 12.0866L128.042 12.6793C127.107 8.80506 128.854 6.21022 132.637 5.30673C136.29 4.43215 138.862 5.84883 139.515 8.55931C140.022 10.6626 139.065 12.4046 137.456 13.2864C139.21 13.1418 141.783 13.9586 142.493 16.9221C143.269 20.1457 141.152 23.0441 137.007 24.0344C132.63 25.0824 129.905 23.0658 129.028 19.4013V19.394Z" fill="#323232"/>
<path d="M160.234 12.9105C160.147 11.5516 161.22 10.3301 162.611 10.2361C163.974 10.1494 165.198 11.2191 165.293 12.578C165.38 13.9658 164.307 15.1873 162.945 15.274C161.553 15.3608 160.328 14.291 160.234 12.9032V12.9105Z" fill="#323232"/>
<path d="M185.324 0.948242L190.462 1.54094L195.383 12.6865L195.513 12.7009L196.716 2.2565L201.753 2.83474L199.608 21.4323L194.252 20.8179L189.476 10.041L189.368 10.0266L188.201 20.124L183.164 19.5458L185.309 0.948242H185.324Z" fill="#323232"/>
<path d="M207.522 3.9479L220.494 7.01256L219.479 11.2843L211.442 9.38333L210.754 12.2745L218.008 13.9875L217.102 17.8111L209.848 16.0981L209.145 19.0616L217.443 21.0204L216.428 25.2921L203.195 22.1624L207.529 3.94067L207.522 3.9479Z" fill="#323232"/>
<path d="M224.973 7.93042L229.836 9.84583L227.821 21.4756L228.017 21.5551L235.068 11.913L239.88 13.8068L238.416 25.6534L238.59 25.7257L245.113 15.874L249.954 17.7821L238.619 33.4379L233.735 31.5153L235.119 18.7796L227.401 29.0216L222.538 27.1062L224.973 7.93765V7.93042Z" fill="#323232"/>
<path d="M259.679 37.5868L260.679 23.7742L265.506 26.9183L264.571 34.898L271.521 30.8359L276.348 33.9801L264.078 40.4563L260.462 45.9857L256.063 43.1234L259.679 37.594V37.5868Z" fill="#323232"/>
<path d="M272.34 42.6463C275.877 38.4469 281.203 37.5289 285.595 41.2152C289.965 44.8798 289.98 50.2718 286.443 54.4713C282.921 58.6491 277.565 59.6031 273.188 55.9386C268.796 52.2595 268.818 46.8241 272.333 42.6463H272.34ZM276.007 52.5993C278.101 54.3556 280.544 53.3293 282.421 51.0958C284.334 48.8263 284.878 46.3109 282.783 44.5545C280.667 42.7837 278.275 43.7522 276.362 46.0218C274.485 48.2552 273.891 50.8284 276 52.5993H276.007Z" fill="#323232"/>
<path d="M296.256 51.0308L301.698 56.9071C305.322 60.8174 304.727 64.3158 301.988 66.8383C300.118 68.5658 297.792 69.3609 295.306 68.2984L293.132 75.2517L289.726 71.5799L291.77 65.4361L290.074 63.6074L285.899 67.4599L282.457 63.7447L296.241 51.0308H296.256ZM295.212 62.6678C296.393 63.9471 297.538 63.8026 298.43 62.9858C299.314 62.1691 299.553 61.0415 298.364 59.7621L296.473 57.7166L293.32 60.6223L295.212 62.6678Z" fill="#323232"/>
<path d="M310.156 66.4625L313.105 70.5752L306.67 75.165L316.816 75.7505L320.28 80.5787L309.576 79.7692L305.452 92.0856L302.082 87.3875L304.851 79.4295L301.089 79.1548L297.843 81.475L294.893 77.3623L310.163 66.4625H310.156Z" fill="#323232"/>
<path d="M318.345 95.6635C323.657 93.112 328.484 94.5432 330.955 99.675C332.81 103.528 332.39 107.647 327.81 110.112L325.664 105.653C327.498 104.272 327.592 102.74 326.94 101.388C325.664 98.7354 322.932 99.2486 320.613 100.354C318.294 101.46 316.134 103.217 317.446 105.942C318.098 107.293 319.352 108.168 321.606 107.597L323.751 112.057C318.961 114.088 315.446 111.854 313.562 107.951C311.112 102.863 313.004 98.2222 318.345 95.6563V95.6635Z" fill="#323232"/>
<path d="M335.883 111.616L337.644 116.35L320.048 122.862L318.287 118.128L335.883 111.616Z" fill="#323232"/>
<path d="M336.115 126.057L334.709 121.091L339.021 119.884L343.202 134.687L338.89 135.894L337.492 130.929L323.737 134.788L322.36 129.924L336.115 126.064V126.057Z" fill="#323232"/>
<path d="M333.18 147.105L344.166 138.634L345.043 144.315L338.456 148.948L346.13 151.398L347.007 157.079L333.977 152.28L327.433 153.285L326.635 148.102L333.18 147.098V147.105Z" fill="#323232"/>
<path d="M335.926 176.667C337.296 176.711 338.412 177.896 338.369 179.284C338.325 180.65 337.137 181.763 335.774 181.72C334.383 181.676 333.267 180.491 333.303 179.125C333.346 177.737 334.535 176.624 335.926 176.667Z" fill="#323232"/>
<path d="M345.449 202.861L344.833 205.796L328.86 211.81L328.846 211.889L342.942 214.831L342.369 217.556L323.998 213.718L324.635 210.682L340.463 204.719L340.478 204.668L326.512 201.755L327.085 199.031L345.464 202.869L345.449 202.861Z" fill="#323232"/>
<path d="M332.078 219.847C337.811 221.813 340.007 226.359 338.361 231.137C336.724 235.893 332.18 238.119 326.447 236.153C320.715 234.187 318.49 229.634 320.135 224.878C321.787 220.1 326.353 217.881 332.078 219.847ZM322.418 225.658C321.302 228.896 322.969 231.954 327.375 233.472C331.781 234.99 334.963 233.587 336.079 230.357C337.202 227.097 335.564 224.039 331.151 222.529C326.737 221.011 323.541 222.406 322.411 225.666L322.418 225.658Z" fill="#323232"/>
<path d="M334.049 242.297L332.774 244.921L315.989 243.215L315.917 243.36L327.643 255.459L326.367 258.083L312.562 243.584L314.083 240.454L334.049 242.304V242.297Z" fill="#323232"/>
<path d="M323.947 262.08L317.432 272.365L315.374 271.064L320.396 263.128L315.634 260.128L311.04 267.385L309.155 266.2L313.75 258.943L308.648 255.727L303.481 263.887L301.416 262.586L308.076 252.077L323.94 262.073L323.947 262.08Z" fill="#323232"/>
<path d="M314.489 276.796L312.315 279.449L296.676 274.78L304.372 289.134L302.198 291.787L287.668 279.94L289.436 277.786L300.104 286.482L300.169 286.395L293.11 273.291L294.502 271.592L308.8 275.857L308.851 275.792L298.183 267.096L299.944 264.942L314.475 276.789L314.489 276.796Z" fill="#323232"/>
<path d="M297.77 296.247L292.56 301.14C289.653 303.872 287.059 303.735 285.196 301.769C283.834 300.33 283.617 298.733 284.421 297.165C282.189 298.343 280.051 298.111 278.304 296.261C276.174 294.006 276.152 290.826 279.573 287.616L284.899 282.607L297.77 296.232V296.247ZM281.326 289.25C279.276 291.173 279.297 293.03 280.587 294.396C281.877 295.762 283.696 295.849 285.74 293.926L288.921 290.941L284.508 286.272L281.326 289.257V289.25ZM287.494 295.509C286.052 296.868 285.856 298.299 287.052 299.564C288.211 300.793 289.639 300.663 291.081 299.304L294.125 296.442L290.538 292.647L287.494 295.509Z" fill="#323232"/>
<path d="M283.566 309.127L273.855 316.499L272.376 314.562L279.863 308.874L276.449 304.407L269.601 309.611L268.253 307.848L275.101 302.643L271.449 297.859L263.745 303.706L262.267 301.769L272.188 294.237L283.559 309.134L283.566 309.127Z" fill="#323232"/>
<path d="M269.68 319.354L263.636 323.026C259.723 325.404 256.628 324.559 254.744 321.479C253.309 319.13 253.374 316.673 255.382 314.613L247.939 310.652L250.323 309.206L257.382 312.994L261.136 310.71L257.534 304.819L259.911 303.373L269.68 319.354ZM258.831 314.96C256.52 316.369 256.048 318.155 257.172 320.005C258.331 321.899 260.143 322.296 262.455 320.894L266.028 318.726L262.397 312.791L258.824 314.96H258.831Z" fill="#323232"/>
<path d="M237.952 324.811C236.111 327.349 234.662 329.033 235.568 331.172C236.365 333.131 238.177 333.499 239.96 332.755C241.793 331.989 242.779 330.326 241.8 328.006L241.656 327.659L244.076 326.647L244.272 327.117C245.569 330.204 244.627 333.29 240.822 334.887C237.213 336.398 234.321 335.198 233.118 332.336C231.814 329.228 233.582 326.864 235.394 324.479C237.351 321.805 238.206 320.027 237.488 318.321L237.438 318.198L228.654 321.87L227.77 319.774L239.394 314.909L239.699 315.625C240.996 318.711 240.655 321.14 237.945 324.797L237.952 324.811Z" fill="#323232"/>
<path d="M228.372 328.512L221.088 330.905L220.443 328.946L227.727 326.553L228.372 328.512Z" fill="#323232"/>
<path d="M217.334 329.618L214.856 330.204C214.211 327.609 212.203 326.676 209.804 327.24C207.638 327.753 206.029 329.336 206.558 331.577C207.022 333.557 208.819 334.504 211.667 333.839L212.551 333.63L213.015 335.61L212.261 335.791C209.312 336.485 208.964 338.162 209.268 339.434C209.689 341.205 211.254 341.877 213.182 341.421C215.059 340.981 216.45 339.636 215.812 336.926L218.291 336.34C219.211 340.222 217.45 342.802 213.667 343.691C210.015 344.551 207.442 343.12 206.804 340.417C206.304 338.306 207.275 336.571 208.884 335.697C207.123 335.834 204.565 335.01 203.862 332.047C203.101 328.823 205.224 325.932 209.377 324.956C213.761 323.923 216.472 325.954 217.341 329.618H217.334Z" fill="#323232"/>
<path d="M186.085 335.986C186.172 337.345 185.085 338.566 183.693 338.653C182.331 338.74 181.106 337.656 181.026 336.297C180.939 334.909 182.026 333.687 183.389 333.608C184.78 333.521 186.005 334.598 186.085 335.986Z" fill="#323232"/>
<path d="M155.487 154.514C176.113 143.079 204.376 127.423 204.376 81.8436H170.163C170.163 107.344 157.712 114.239 138.877 124.684C118.251 136.118 89.9877 151.774 89.9877 197.354H124.201C124.201 171.853 136.645 164.958 155.487 154.514Z" fill="#FF3C00"/>
<path d="M214.704 144.04C214.704 169.541 202.26 176.436 183.418 186.88C162.792 198.315 134.529 213.971 134.529 259.55H168.742C168.742 234.05 181.193 227.155 200.035 216.71C220.661 205.276 248.925 189.62 248.925 144.04H214.711H214.704Z" fill="#FF3C00"/>
</g>
<defs>
<clipPath id="clip0_1_49">
<rect width="347" height="348" fill="white"/>
</clipPath>
</defs>
</svg>
