<svg width="15" height="220" viewBox="0 0 15 220" fill="none" xmlns="http://www.w3.org/2000/svg">
<g clip-path="url(#clip0_1_246)">
<g clip-path="url(#clip1_1_246)">
<path fill-rule="evenodd" clip-rule="evenodd" d="M9.04192 8.57392C4.45775 8.4817 0.76997 4.73674 0.76997 0.130481C0.76997 0.08691 0.770304 0.0434152 0.770959 0L-0.988464 0.000264336V219.897L0.772036 219.896C0.770612 219.833 0.769889 219.769 0.769889 219.704C0.769889 215.098 4.45772 211.353 9.04192 211.261V200.702C4.45772 200.609 0.769889 196.864 0.769889 192.258C0.769889 187.651 4.45772 183.907 9.04192 183.814V173.254C4.45772 173.162 0.769889 169.417 0.769889 164.811C0.769889 160.205 4.45772 156.459 9.04192 156.367V145.808C4.45772 145.716 0.769889 141.971 0.769889 137.364C0.769889 132.758 4.45772 129.013 9.04192 128.921V118.361C4.45772 118.268 0.769889 114.524 0.769889 109.917C0.769889 105.311 4.45772 101.566 9.04192 101.474V90.9142C4.45772 90.8219 0.769889 87.0772 0.769889 82.4712C0.769889 77.8646 4.45772 74.1199 9.04192 74.0277V63.4674C4.45772 63.3752 0.769889 59.6303 0.769889 55.024C0.769889 50.4177 4.45772 46.6728 9.04192 46.5806V36.0208C4.45772 35.9286 0.769889 32.1837 0.769889 27.5774C0.769889 22.9711 4.45772 19.2262 9.04192 19.134V8.57392Z" fill="#CCCCCC"/>
</g>
</g>
<defs>
<clipPath id="clip0_1_246">
<rect width="15" height="220" fill="white"/>
</clipPath>
<clipPath id="clip1_1_246">
<rect width="10.6991" height="220" fill="white" transform="translate(-1)"/>
</clipPath>
</defs>
</svg>
