<svg width="15" height="220" viewBox="0 0 15 220" fill="none" xmlns="http://www.w3.org/2000/svg">
<g clip-path="url(#clip0_1_231)">
<g clip-path="url(#clip1_1_231)">
<path fill-rule="evenodd" clip-rule="evenodd" d="M5.95814 211.426C10.5423 211.518 14.2301 215.263 14.2301 219.87C14.2301 219.913 14.2298 219.957 14.2291 220L15.9885 220V0.102982L14.228 0.103653C14.2294 0.167175 14.2302 0.231354 14.2302 0.295547C14.2302 4.90218 10.5423 8.64687 5.95814 8.73915V19.2985C10.5423 19.3907 14.2302 23.1361 14.2302 27.7421C14.2302 32.3487 10.5423 36.0934 5.95814 36.1857V46.7457C10.5423 46.8379 14.2302 50.5826 14.2302 55.1892C14.2302 59.7952 10.5423 63.5406 5.95814 63.6328V74.1922C10.5423 74.2844 14.2302 78.0291 14.2302 82.6357C14.2302 87.2417 10.5423 90.9871 5.95814 91.0793V101.639C10.5423 101.732 14.2302 105.476 14.2302 110.083C14.2302 114.689 10.5423 118.434 5.95814 118.526V129.086C10.5423 129.178 14.2302 132.923 14.2302 137.529C14.2302 142.135 10.5423 145.88 5.95814 145.972V156.533C10.5423 156.625 14.2302 160.37 14.2302 164.976C14.2302 169.582 10.5423 173.327 5.95814 173.419V183.979C10.5423 184.071 14.2302 187.816 14.2302 192.423C14.2302 197.029 10.5423 200.774 5.95814 200.866V211.426Z" fill="white"/>
</g>
</g>
<defs>
<clipPath id="clip0_1_231">
<rect width="15" height="220" fill="white" transform="matrix(-1 0 0 -1 15 220)"/>
</clipPath>
<clipPath id="clip1_1_231">
<rect width="10.6991" height="220" fill="white" transform="matrix(-1 0 0 -1 16 220)"/>
</clipPath>
</defs>
</svg>
